<svg xmlns="http://www.w3.org/2000/svg" xmlns:xlink="http://www.w3.org/1999/xlink" width="694" height="233" viewBox="0 0 694.05 233"><g id="graph0" class="graph" transform="scale(1.0 1.0) rotate(0) translate(4 229)"><title>example-impacting-sub-graph</title><polygon fill="#fff" stroke="transparent" points="-4 4 -4 -229 690.052 -229 690.052 4 -4 4"/><g id="node1" class="node"><title>CustomerCheck_12</title><ellipse cx="102.691" cy="-207" fill="#add8e6" stroke="#add8e6" rx="102.882" ry="18"/><text x="102.691" y="-203.3" fill="#000" font-family="Times,serif" font-size="14" text-anchor="middle">CustomerCheck_12</text></g><g id="node2" class="node"><title>PriceCheck_11</title><ellipse cx="358.625" cy="-126" fill="#add8e6" stroke="#add8e6" rx="81.486" ry="18"/><text x="358.625" y="-122.3" fill="#000" font-family="Times,serif" font-size="14" text-anchor="middle">PriceCheck_11</text></g><g id="edge1" class="edge"><title>CustomerCheck_12-&gt;PriceCheck_11</title><path fill="none" stroke="#000" stroke-dasharray="5 2" d="M162.1146,-192.2578C176.3519,-188.4829 191.4604,-184.2751 205.3818,-180 239.7836,-169.4355 277.9555,-155.9895 307.5961,-145.1578"/><polygon fill="#000" stroke="#000" points="309.123 -148.326 317.303 -141.593 306.71 -141.755 309.123 -148.326"/></g><g id="node6" class="node"><title>StatusCheck_11</title><ellipse cx="598.96" cy="-99" fill="orange" stroke="orange" rx="87.185" ry="18"/><text x="598.96" y="-95.3" fill="#000" font-family="Times,serif" font-size="14" text-anchor="middle">StatusCheck_11</text></g><g id="edge2" class="edge"><title>PriceCheck_11-&gt;StatusCheck_11</title><path fill="none" stroke="#000" d="M417.4171,-113.498C443.1493,-109.823 474.0139,-106.1121 502.9331,-103.1605"/><polygon fill="#000" stroke="#000" points="503.466 -106.625 513.069 -102.149 502.771 -99.659 503.466 -106.625"/></g><g id="node3" class="node"><title>CustomerCheck_11</title><ellipse cx="102.691" cy="-153" fill="#add8e6" stroke="#add8e6" rx="102.882" ry="18"/><text x="102.691" y="-149.3" fill="#000" font-family="Times,serif" font-size="14" text-anchor="middle">CustomerCheck_11</text></g><g id="edge3" class="edge"><title>CustomerCheck_11-&gt;PriceCheck_11</title><path fill="none" stroke="#000" stroke-dasharray="5 2" d="M190.7687,-143.7081C218.0785,-140.8271 248.0814,-137.6619 275.0742,-134.8142"/><polygon fill="#000" stroke="#000" points="275.683 -138.27 285.26 -133.74 274.948 -131.308 275.683 -138.27"/></g><g id="node4" class="node"><title>CustomerCheck_14</title><ellipse cx="102.691" cy="-99" fill="#add8e6" stroke="#add8e6" rx="102.882" ry="18"/><text x="102.691" y="-95.3" fill="#000" font-family="Times,serif" font-size="14" text-anchor="middle">CustomerCheck_14</text></g><g id="edge4" class="edge"><title>CustomerCheck_14-&gt;PriceCheck_11</title><path fill="none" stroke="#000" d="M190.7687,-108.2919C218.0785,-111.1729 248.0814,-114.3381 275.0742,-117.1858"/><polygon fill="#000" stroke="#000" points="274.948 -120.692 285.26 -118.26 275.683 -113.73 274.948 -120.692"/></g><g id="node5" class="node"><title>CustomerCheck_13</title><ellipse cx="102.691" cy="-45" fill="#add8e6" stroke="#add8e6" rx="102.882" ry="18"/><text x="102.691" y="-41.3" fill="#000" font-family="Times,serif" font-size="14" text-anchor="middle">CustomerCheck_13</text></g><g id="edge5" class="edge"><title>CustomerCheck_13-&gt;PriceCheck_11</title><path fill="none" stroke="#000" d="M162.7178,-59.6869C176.7937,-63.433 191.6795,-67.6419 205.3818,-72 237.9502,-82.3586 245.16,-87.6088 277.3818,-99 285.6288,-101.9155 294.3776,-104.9175 302.9617,-107.812"/><polygon fill="#000" stroke="#000" points="301.954 -111.166 312.548 -111.024 304.178 -104.528 301.954 -111.166"/></g><g id="edge6" class="edge"><title>StatusCheck_11-&gt;PriceCheck_11</title><path fill="none" stroke="#000" stroke-dasharray="5 2" d="M537.8613,-111.8295C511.0917,-115.6103 479.1163,-119.404 449.6332,-122.346"/><polygon fill="#000" stroke="#000" points="448.935 -118.897 439.321 -123.35 449.613 -125.864 448.935 -118.897"/></g><g id="node7" class="node"><title>PriceCheck_13</title><ellipse cx="358.625" cy="-72" fill="#add8e6" stroke="#add8e6" rx="81.486" ry="18"/><text x="358.625" y="-68.3" fill="#000" font-family="Times,serif" font-size="14" text-anchor="middle">PriceCheck_13</text></g><g id="edge7" class="edge"><title>PriceCheck_13-&gt;StatusCheck_11</title><path fill="none" stroke="#000" stroke-dasharray="5 2" d="M431.3852,-80.1742C456.8667,-83.0368 485.7352,-86.28 512.2438,-89.2581"/><polygon fill="#000" stroke="#000" points="511.948 -92.747 522.276 -90.385 512.729 -85.79 511.948 -92.747"/></g><g id="node8" class="node"><title>PriceCheck_12</title><ellipse cx="358.625" cy="-18" fill="#add8e6" stroke="#add8e6" rx="81.486" ry="18"/><text x="358.625" y="-14.3" fill="#000" font-family="Times,serif" font-size="14" text-anchor="middle">PriceCheck_12</text></g><g id="edge8" class="edge"><title>PriceCheck_12-&gt;StatusCheck_11</title><path fill="none" stroke="#000" stroke-dasharray="5 2" d="M404.1884,-33.0859C415.8263,-36.9547 428.3138,-41.1194 439.8674,-45 474.5475,-56.6483 513.4343,-69.845 544.081,-80.2767"/><polygon fill="#000" stroke="#000" points="543.131 -83.651 553.726 -83.561 545.388 -77.024 543.131 -83.651"/></g></g></svg>