<svg xmlns="http://www.w3.org/2000/svg" xmlns:xlink="http://www.w3.org/1999/xlink" width="410" height="98" viewBox="0 0 410.17 98"><g id="graph0" class="graph" transform="scale(1.0 1.0) rotate(0) translate(4 94)"><title>example-impacted-collapsed-sub-graph</title><polygon fill="#fff" stroke="transparent" points="-4 4 -4 -94 406.171 -94 406.171 4 -4 4"/><g id="node1" class="node"><title>Inventory shortage</title><ellipse cx="302.08" cy="-72" fill="#ff0" stroke="#ff0" rx="100.182" ry="18"/><text x="302.08" y="-68.3" fill="#000" font-family="Times,serif" font-size="14" text-anchor="middle">Inventory shortage</text></g><g id="node2" class="node"><title>PriceCheck</title><ellipse cx="64.994" cy="-18" fill="red" stroke="red" rx="64.989" ry="18"/><text x="64.994" y="-14.3" fill="#000" font-family="Times,serif" font-size="14" text-anchor="middle">PriceCheck</text></g><g id="edge2" class="edge"><title>PriceCheck-&gt;Inventory shortage</title><path fill="none" stroke="#000" stroke-dasharray="5 2" d="M115.2739,-29.452C148.4474,-37.0078 192.4401,-47.0278 229.4002,-55.4461"/><polygon fill="#000" stroke="#000" points="229.096 -58.966 239.624 -57.775 230.65 -52.141 229.096 -58.966"/></g><g id="node3" class="node"><title>StatusCheck</title><ellipse cx="302.08" cy="-18" fill="#ff0" stroke="#ff0" rx="70.688" ry="18"/><text x="302.08" y="-14.3" fill="#000" font-family="Times,serif" font-size="14" text-anchor="middle">StatusCheck</text></g><g id="edge1" class="edge"><title>PriceCheck-&gt;StatusCheck</title><path fill="none" stroke="#000" stroke-dasharray="5 2" d="M115.855,-6.6854C151.4515,-4.0906 199.293,-3.8065 237.5714,-5.8329"/><polygon fill="#000" stroke="#000" points="237.398 -9.329 247.589 -6.432 237.815 -2.341 237.398 -9.329"/></g><g id="edge3" class="edge"><title>PriceCheck-&gt;StatusCheck</title><path fill="none" stroke="#000" d="M130.0924,-18C158.051,-18 191.026,-18 220.5845,-18"/><polygon fill="#000" stroke="#000" points="220.883 -21.5 230.883 -18 220.883 -14.5 220.883 -21.5"/></g><g id="edge4" class="edge"><title>StatusCheck-&gt;PriceCheck</title><path fill="none" stroke="#000" stroke-dasharray="5 2" d="M247.5886,-29.5684C211.3484,-31.9975 163.6941,-32.1355 126.1564,-29.9826"/><polygon fill="#000" stroke="#000" points="126.061 -26.469 115.855 -29.315 125.608 -33.455 126.061 -26.469"/></g></g></svg>