<svg xmlns="http://www.w3.org/2000/svg" xmlns:xlink="http://www.w3.org/1999/xlink" width="720" height="341" viewBox="0 0 720.05 341"><g id="graph0" class="graph" transform="scale(1.0 1.0) rotate(0) translate(4 337)"><title>example-impacted-whole-graph</title><polygon fill="#fff" stroke="transparent" points="-4 4 -4 -337 716.05 -337 716.05 4 -4 4"/><g id="node1" class="node"><title>PriceCheck_11</title><ellipse cx="358.625" cy="-180" fill="red" stroke="red" rx="81.486" ry="18"/><text x="358.625" y="-176.3" fill="#000" font-family="Times,serif" font-size="14" text-anchor="middle">PriceCheck_11</text></g><g id="node2" class="node"><title>Inventory shortage</title><ellipse cx="611.958" cy="-126" fill="#ff0" stroke="#ff0" rx="100.182" ry="18"/><text x="611.958" y="-122.3" fill="#000" font-family="Times,serif" font-size="14" text-anchor="middle">Inventory shortage</text></g><g id="edge3" class="edge"><title>PriceCheck_11-&gt;Inventory shortage</title><path fill="none" stroke="#000" stroke-dasharray="5 2" d="M417.3812,-167.4756C453.0722,-159.8678 498.976,-150.083 537.2337,-141.9281"/><polygon fill="#000" stroke="#000" points="538.244 -145.292 547.294 -139.784 536.784 -138.445 538.244 -145.292"/></g><g id="node3" class="node"><title>StatusCheck_11</title><ellipse cx="611.958" cy="-180" fill="#ff0" stroke="#ff0" rx="87.185" ry="18"/><text x="611.958" y="-176.3" fill="#000" font-family="Times,serif" font-size="14" text-anchor="middle">StatusCheck_11</text></g><g id="edge5" class="edge"><title>PriceCheck_11-&gt;StatusCheck_11</title><path fill="none" stroke="#000" d="M434.9766,-173.7475C461.7059,-173.1909 492.0044,-173.1013 519.882,-173.4789"/><polygon fill="#000" stroke="#000" points="519.978 -176.981 530.032 -173.639 520.089 -169.982 519.978 -176.981"/></g><g id="node4" class="node"><title>StatusCheck_12</title><ellipse cx="611.958" cy="-72" fill="#ff0" stroke="#ff0" rx="87.185" ry="18"/><text x="611.958" y="-68.3" fill="#000" font-family="Times,serif" font-size="14" text-anchor="middle">StatusCheck_12</text></g><g id="edge2" class="edge"><title>PriceCheck_11-&gt;StatusCheck_12</title><path fill="none" stroke="#000" stroke-dasharray="5 2" d="M409.5086,-165.8966C419.8114,-162.2692 430.386,-157.9624 439.8674,-153 475.3069,-134.4516 475.9104,-116.5243 511.8674,-99 520.786,-94.6533 530.5047,-90.9267 540.2653,-87.7546"/><polygon fill="#000" stroke="#000" points="541.478 -91.044 550.012 -84.765 539.425 -84.351 541.478 -91.044"/></g><g id="node6" class="node"><title>StatusCheck_13</title><ellipse cx="611.958" cy="-18" fill="#ff0" stroke="#ff0" rx="87.185" ry="18"/><text x="611.958" y="-14.3" fill="#000" font-family="Times,serif" font-size="14" text-anchor="middle">StatusCheck_13</text></g><g id="edge4" class="edge"><title>PriceCheck_11-&gt;StatusCheck_13</title><path fill="none" stroke="#000" stroke-dasharray="5 2" d="M414.8354,-166.7866C423.7229,-163.2002 432.4233,-158.6804 439.8674,-153 485.7287,-118.0038 465.0211,-78.6664 511.8674,-45 518.6955,-40.0929 526.3649,-36.0777 534.3411,-32.7922"/><polygon fill="#000" stroke="#000" points="535.666 -36.034 543.813 -29.261 533.221 -29.475 535.666 -36.034"/></g><g id="edge9" class="edge"><title>StatusCheck_11-&gt;PriceCheck_11</title><path fill="none" stroke="#000" stroke-dasharray="5 2" d="M530.0321,-186.3609C502.9587,-186.851 472.7564,-186.8781 445.3369,-186.4422"/><polygon fill="#000" stroke="#000" points="445.039 -182.936 434.977 -186.252 444.911 -189.935 445.039 -182.936"/></g><g id="node5" class="node"><title>Wrong price</title><ellipse cx="102.691" cy="-315" fill="none" stroke="#000" rx="68.489" ry="18"/><text x="102.691" y="-311.3" fill="#000" font-family="Times,serif" font-size="14" text-anchor="middle">Wrong price</text></g><g id="node7" class="node"><title>CustomerCheck_12</title><ellipse cx="102.691" cy="-261" fill="none" stroke="#000" rx="102.882" ry="18"/><text x="102.691" y="-257.3" fill="#000" font-family="Times,serif" font-size="14" text-anchor="middle">CustomerCheck_12</text></g><g id="edge1" class="edge"><title>CustomerCheck_12-&gt;PriceCheck_11</title><path fill="none" stroke="#000" stroke-dasharray="5 2" d="M162.1146,-246.2578C176.3519,-242.4829 191.4604,-238.2751 205.3818,-234 239.7836,-223.4355 277.9555,-209.9895 307.5961,-199.1578"/><polygon fill="#000" stroke="#000" points="309.123 -202.326 317.303 -195.593 306.71 -195.755 309.123 -202.326"/></g><g id="node8" class="node"><title>CustomerCheck_11</title><ellipse cx="102.691" cy="-207" fill="none" stroke="#000" rx="102.882" ry="18"/><text x="102.691" y="-203.3" fill="#000" font-family="Times,serif" font-size="14" text-anchor="middle">CustomerCheck_11</text></g><g id="edge6" class="edge"><title>CustomerCheck_11-&gt;PriceCheck_11</title><path fill="none" stroke="#000" stroke-dasharray="5 2" d="M190.7687,-197.7081C218.0785,-194.8271 248.0814,-191.6619 275.0742,-188.8142"/><polygon fill="#000" stroke="#000" points="275.683 -192.27 285.26 -187.74 274.948 -185.308 275.683 -192.27"/></g><g id="node9" class="node"><title>CustomerCheck_14</title><ellipse cx="102.691" cy="-153" fill="none" stroke="#000" rx="102.882" ry="18"/><text x="102.691" y="-149.3" fill="#000" font-family="Times,serif" font-size="14" text-anchor="middle">CustomerCheck_14</text></g><g id="edge7" class="edge"><title>CustomerCheck_14-&gt;PriceCheck_11</title><path fill="none" stroke="#000" d="M190.7687,-162.2919C218.0785,-165.1729 248.0814,-168.3381 275.0742,-171.1858"/><polygon fill="#000" stroke="#000" points="274.948 -174.692 285.26 -172.26 275.683 -167.73 274.948 -174.692"/></g><g id="node10" class="node"><title>CustomerCheck_13</title><ellipse cx="102.691" cy="-99" fill="none" stroke="#000" rx="102.882" ry="18"/><text x="102.691" y="-95.3" fill="#000" font-family="Times,serif" font-size="14" text-anchor="middle">CustomerCheck_13</text></g><g id="edge8" class="edge"><title>CustomerCheck_13-&gt;PriceCheck_11</title><path fill="none" stroke="#000" d="M162.7178,-113.6869C176.7937,-117.433 191.6795,-121.6419 205.3818,-126 237.9502,-136.3586 245.16,-141.6088 277.3818,-153 285.6288,-155.9155 294.3776,-158.9175 302.9617,-161.812"/><polygon fill="#000" stroke="#000" points="301.954 -165.166 312.548 -165.024 304.178 -158.528 301.954 -165.166"/></g><g id="node11" class="node"><title>PriceCheck_13</title><ellipse cx="358.625" cy="-126" fill="none" stroke="#000" rx="81.486" ry="18"/><text x="358.625" y="-122.3" fill="#000" font-family="Times,serif" font-size="14" text-anchor="middle">PriceCheck_13</text></g><g id="edge10" class="edge"><title>PriceCheck_13-&gt;Inventory shortage</title><path fill="none" stroke="#000" stroke-dasharray="5 2" d="M440.1755,-126C459.6911,-126 480.8502,-126 501.4315,-126"/><polygon fill="#000" stroke="#000" points="501.479 -129.5 511.479 -126 501.479 -122.5 501.479 -129.5"/></g><g id="edge12" class="edge"><title>PriceCheck_13-&gt;StatusCheck_11</title><path fill="none" stroke="#000" stroke-dasharray="5 2" d="M417.3812,-138.5244C454.2798,-146.3896 502.094,-156.5816 541.09,-164.8939"/><polygon fill="#000" stroke="#000" points="540.809 -168.412 551.319 -167.074 542.268 -161.566 540.809 -168.412"/></g><g id="edge13" class="edge"><title>PriceCheck_13-&gt;StatusCheck_12</title><path fill="none" stroke="#000" stroke-dasharray="5 2" d="M417.3812,-113.4756C454.2798,-105.6104 502.094,-95.4184 541.09,-87.1061"/><polygon fill="#000" stroke="#000" points="542.268 -90.434 551.319 -84.926 540.809 -83.588 542.268 -90.434"/></g><g id="edge11" class="edge"><title>PriceCheck_13-&gt;StatusCheck_13</title><path fill="none" stroke="#000" d="M409.5086,-111.8966C419.8114,-108.2692 430.386,-103.9624 439.8674,-99 475.3069,-80.4516 475.9104,-62.5243 511.8674,-45 520.786,-40.6533 530.5047,-36.9267 540.2653,-33.7546"/><polygon fill="#000" stroke="#000" points="541.478 -37.044 550.012 -30.765 539.425 -30.351 541.478 -37.044"/></g><g id="node12" class="node"><title>PriceCheck_12</title><ellipse cx="358.625" cy="-72" fill="none" stroke="#000" rx="81.486" ry="18"/><text x="358.625" y="-68.3" fill="#000" font-family="Times,serif" font-size="14" text-anchor="middle">PriceCheck_12</text></g><g id="edge14" class="edge"><title>PriceCheck_12-&gt;Inventory shortage</title><path fill="none" stroke="#000" stroke-dasharray="5 2" d="M417.3812,-84.5244C453.0722,-92.1322 498.976,-101.917 537.2337,-110.0719"/><polygon fill="#000" stroke="#000" points="536.784 -113.555 547.294 -112.216 538.244 -106.708 536.784 -113.555"/></g><g id="edge17" class="edge"><title>PriceCheck_12-&gt;StatusCheck_11</title><path fill="none" stroke="#000" stroke-dasharray="5 2" d="M409.5086,-86.1034C419.8114,-89.7308 430.386,-94.0376 439.8674,-99 475.3069,-117.5484 475.9104,-135.4757 511.8674,-153 520.786,-157.3467 530.5047,-161.0733 540.2653,-164.2454"/><polygon fill="#000" stroke="#000" points="539.425 -167.649 550.012 -167.235 541.478 -160.956 539.425 -167.649"/></g><g id="edge16" class="edge"><title>PriceCheck_12-&gt;StatusCheck_12</title><path fill="none" stroke="#000" d="M440.1755,-72C463.8213,-72 489.88,-72 514.4002,-72"/><polygon fill="#000" stroke="#000" points="514.437 -75.5 524.437 -72 514.437 -68.5 514.437 -75.5"/></g><g id="edge15" class="edge"><title>PriceCheck_12-&gt;StatusCheck_13</title><path fill="none" stroke="#000" stroke-dasharray="5 2" d="M417.3812,-59.4756C454.2798,-51.6104 502.094,-41.4184 541.09,-33.1061"/><polygon fill="#000" stroke="#000" points="542.268 -36.434 551.319 -30.926 540.809 -29.587 542.268 -36.434"/></g></g></svg>