<svg xmlns="http://www.w3.org/2000/svg" xmlns:xlink="http://www.w3.org/1999/xlink" width="443" height="206" viewBox="0 0 442.67 206"><g id="graph0" class="graph" transform="scale(1.0 1.0) rotate(0) translate(4 202)"><title>example-impacted-sub-graph</title><polygon fill="#fff" stroke="transparent" points="-4 4 -4 -202 438.668 -202 438.668 4 -4 4"/><g id="node1" class="node"><title>Inventory shortage</title><ellipse cx="334.577" cy="-126" fill="#ff0" stroke="#ff0" rx="100.182" ry="18"/><text x="334.577" y="-122.3" fill="#000" font-family="Times,serif" font-size="14" text-anchor="middle">Inventory shortage</text></g><g id="node2" class="node"><title>StatusCheck_11</title><ellipse cx="334.577" cy="-180" fill="#ff0" stroke="#ff0" rx="87.185" ry="18"/><text x="334.577" y="-176.3" fill="#000" font-family="Times,serif" font-size="14" text-anchor="middle">StatusCheck_11</text></g><g id="node3" class="node"><title>PriceCheck_11</title><ellipse cx="81.243" cy="-126" fill="red" stroke="red" rx="81.486" ry="18"/><text x="81.243" y="-122.3" fill="#000" font-family="Times,serif" font-size="14" text-anchor="middle">PriceCheck_11</text></g><g id="edge1" class="edge"><title>StatusCheck_11-&gt;PriceCheck_11</title><path fill="none" stroke="#000" stroke-dasharray="5 2" d="M260.3839,-170.3916C220.743,-162.8112 172.773,-152.4127 136.4525,-143.4548"/><polygon fill="#000" stroke="#000" points="137.085 -140.005 126.534 -140.97 135.383 -146.795 137.085 -140.005"/></g><g id="edge2" class="edge"><title>PriceCheck_11-&gt;Inventory shortage</title><path fill="none" stroke="#000" stroke-dasharray="5 2" d="M162.7937,-126C182.3093,-126 203.4684,-126 224.0497,-126"/><polygon fill="#000" stroke="#000" points="224.097 -129.5 234.097 -126 224.097 -122.5 224.097 -129.5"/></g><g id="edge5" class="edge"><title>PriceCheck_11-&gt;StatusCheck_11</title><path fill="none" stroke="#000" d="M152.1473,-134.9824C191.8852,-142.5119 240.7713,-153.0648 277.9324,-162.1921"/><polygon fill="#000" stroke="#000" points="277.536 -165.7 288.085 -164.725 279.23 -158.908 277.536 -165.7"/></g><g id="node4" class="node"><title>StatusCheck_12</title><ellipse cx="334.577" cy="-72" fill="#ff0" stroke="#ff0" rx="87.185" ry="18"/><text x="334.577" y="-68.3" fill="#000" font-family="Times,serif" font-size="14" text-anchor="middle">StatusCheck_12</text></g><g id="edge4" class="edge"><title>PriceCheck_11-&gt;StatusCheck_12</title><path fill="none" stroke="#000" stroke-dasharray="5 2" d="M139.9994,-113.4756C176.898,-105.6104 224.7122,-95.4184 263.7083,-87.1061"/><polygon fill="#000" stroke="#000" points="264.887 -90.434 273.937 -84.926 263.427 -83.588 264.887 -90.434"/></g><g id="node5" class="node"><title>StatusCheck_13</title><ellipse cx="334.577" cy="-18" fill="#ff0" stroke="#ff0" rx="87.185" ry="18"/><text x="334.577" y="-14.3" fill="#000" font-family="Times,serif" font-size="14" text-anchor="middle">StatusCheck_13</text></g><g id="edge3" class="edge"><title>PriceCheck_11-&gt;StatusCheck_13</title><path fill="none" stroke="#000" stroke-dasharray="5 2" d="M108.8731,-108.9726C138.891,-91.0586 188.7009,-63.0148 234.4856,-45 244.6156,-41.0141 255.5462,-37.4045 266.3335,-34.2159"/><polygon fill="#000" stroke="#000" points="267.518 -37.518 276.173 -31.407 265.596 -30.787 267.518 -37.518"/></g></g></svg>